<svg width="572" height="90" viewBox="0 0 572 90" fill="none" xmlns="http://www.w3.org/2000/svg">
<path fill-rule="evenodd" clip-rule="evenodd" d="M37.3803 0.865999C37.0863 1.342 35.8213 1.545 34.5713 1.317C32.9043 1.013 31.5943 1.796 29.6643 4.251C27.3393 7.208 27.1933 7.821 28.4143 9.491C29.1753 10.531 29.7973 10.936 29.7973 10.391C29.7973 9.846 29.2573 8.86 28.5973 8.2C27.6643 7.267 27.6683 7 28.6183 7C29.2903 7 30.3693 5.839 31.0153 4.421C31.9333 2.405 32.7323 1.946 34.6743 2.317C36.0403 2.578 37.9563 2.293 38.9323 1.684C41.1673 0.288 42.1753 1.234 41.3213 3.925C40.9593 5.066 39.8083 6 38.7633 6C36.7883 6 29.2603 12.797 30.1973 13.734C30.4913 14.027 32.1793 12.632 33.9483 10.634C36.2113 8.077 38.0003 7 39.9813 7C42.5333 7 42.7973 6.671 42.7973 3.5C42.7973 0.456 42.4793 0 40.3563 0C39.0133 0 37.6743 0.389999 37.3803 0.865999ZM43.7973 8C43.7973 8.55 42.7843 9.052 41.5473 9.116C39.6953 9.211 39.6253 9.317 41.1533 9.71C42.1743 9.973 43.5023 9.695 44.1033 9.094C46.1073 7.09 47.7973 7.91 47.7973 10.885C47.7973 12.859 48.5873 14.287 50.2973 15.408C51.6723 16.309 52.7973 17.846 52.7973 18.823C52.7973 19.8 53.2923 21.095 53.8983 21.701C54.6993 22.502 54.4263 22.983 52.8983 23.468C51.7423 23.835 50.7973 24.779 50.7973 25.567C50.7973 27.25 54.3673 27.504 55.3633 25.893C55.8293 25.14 55.2883 25.001 53.6723 25.458C51.8423 25.977 51.6413 25.89 52.7973 25.082C54.6533 23.784 60.7213 24.751 62.9593 26.702C64.7583 28.27 69.7673 28.127 70.0073 26.5C70.0883 25.95 69.3393 25.343 68.3433 25.151C67.3463 24.959 65.5043 23.609 64.2503 22.151C62.1953 19.763 61.6733 19.611 58.9873 20.624C55.4113 21.972 54.1163 21.335 53.6483 18C53.4473 16.572 52.3163 15.071 51.0093 14.5C49.5473 13.861 48.8143 12.778 48.9793 11.5C49.1203 10.4 48.8853 8.938 48.4573 8.25C47.5323 6.764 43.7973 6.564 43.7973 8ZM55.1223 9.933C54.2323 10.973 52.8943 11.591 52.1503 11.305C51.4063 11.02 50.7973 11.236 50.7973 11.786C50.7973 12.336 51.4933 13.053 52.3443 13.38C53.1963 13.706 54.3743 15.357 54.9643 17.048C55.6853 19.118 56.5133 19.939 57.4983 19.561C58.3023 19.253 60.0493 19 61.3793 19C64.4283 19 64.7163 15.562 61.7973 14C60.6973 13.411 59.7973 12.094 59.7973 11.072C59.7973 8.389 57.0233 7.713 55.1223 9.933ZM22.4233 9.708C21.9873 10.144 21.2183 10.556 20.7143 10.625C20.2093 10.694 19.3953 10.806 18.9043 10.875C18.4133 10.944 17.7283 11.739 17.3813 12.641C16.8393 14.054 16.9773 14.095 18.3753 12.935C20.0383 11.555 20.8353 11.263 24.2633 10.778C25.7513 10.568 26.3603 11.229 26.7693 13.5C27.1553 15.638 27.9543 16.592 29.5533 16.82C30.7873 16.995 31.7973 16.71 31.7973 16.186C31.7973 15.662 32.6973 14.998 33.7973 14.71C34.8973 14.423 35.7973 13.664 35.7973 13.026C35.7973 12.366 34.4663 12.811 32.7203 14.055C29.3883 16.428 28.1583 15.931 27.6323 12C27.2953 9.483 24.0683 8.063 22.4233 9.708ZM36.3043 9.989C35.9543 10.555 36.3553 10.723 37.2453 10.382C38.9773 9.717 39.2943 9 37.8563 9C37.3383 9 36.6403 9.445 36.3043 9.989ZM58.7973 11.992C58.7973 13.022 59.6973 14.151 60.7973 14.5C63.9843 15.512 63.1253 17.569 59.4113 17.819C56.5313 18.013 55.9303 17.668 55.3873 15.503C54.6803 12.685 56.3583 8.611 57.8473 9.531C58.3703 9.854 58.7973 10.961 58.7973 11.992ZM16.9463 18.002C15.9983 20.723 15.6133 20.972 13.8313 20.018C11.2323 18.627 7.79734 20.298 7.79734 22.953C7.79734 23.989 7.52434 25.548 7.19034 26.418C6.69134 27.72 7.40034 28 11.1903 28C14.3393 28 15.7973 27.582 15.7973 26.68C15.7973 25.041 20.3313 21 22.1703 21C24.1053 21 28.7973 24.891 28.7973 26.496C28.7973 27.265 27.5133 26.562 25.8143 24.863C22.8673 21.916 22.8023 21.902 20.3283 23.69C18.9513 24.686 17.9373 26.175 18.0733 27C18.2753 28.219 20.5973 28.552 30.4683 28.78C42.1343 29.049 42.7283 28.962 45.4563 26.6C48.7523 23.745 48.0793 22.559 42.6153 21.589C39.6863 21.069 38.7303 21.298 37.9403 22.709C37.3943 23.685 36.6163 24.152 36.2113 23.748C34.9813 22.517 38.9663 18.919 40.8853 19.528C41.8493 19.834 43.5753 20.265 44.7213 20.485C49.1883 21.346 50.1103 23.892 47.1423 27.171C45.5553 28.925 45.7483 28.997 51.8923 28.93C55.4153 28.891 59.1843 28.513 60.2693 28.089C61.9983 27.413 61.8753 27.247 59.2693 26.741C57.6343 26.424 56.1473 26.578 55.9643 27.082C55.7803 27.587 54.1833 28 52.4143 28C49.3643 28 49.2183 27.83 49.5853 24.694C50.0513 20.702 48.7533 19.495 43.0573 18.626C39.5953 18.098 38.4493 18.348 36.8073 19.99C35.7023 21.095 34.7973 22.423 34.7973 22.941C34.7973 24.781 37.1193 25.28 38.2833 23.689C39.1613 22.487 40.4073 22.225 43.1313 22.667C45.1473 22.994 46.7973 23.468 46.7973 23.721C46.7973 23.973 45.7843 25.024 44.5473 26.056C42.8873 27.442 40.6593 27.942 36.0473 27.967C30.6683 27.995 29.7973 27.748 29.7973 26.188C29.7973 24.081 24.7063 20 22.0773 20C20.1523 20 14.7973 24.443 14.7973 26.04C14.7973 26.568 13.4173 27 11.7313 27C8.97534 27 8.69634 26.721 8.98134 24.25C9.26634 21.771 9.68434 21.5 13.2183 21.5C16.7133 21.5 17.2253 21.18 17.9353 18.55C19.0153 14.549 18.2903 14.147 16.9463 18.002ZM63.2263 22.571C64.0903 23.436 64.7973 24.528 64.7973 24.998C64.7973 25.468 65.5843 26.059 66.5473 26.311C68.0233 26.697 68.0433 26.786 66.6693 26.884C65.7743 26.948 64.4823 26.325 63.7973 25.5C63.1123 24.675 61.4823 24 60.1753 24C57.8543 24 57.1253 23.006 58.4643 21.667C59.5873 20.543 61.5753 20.921 63.2263 22.571ZM23.2893 27.816C18.6703 28.212 17.9813 27.56 20.3053 24.991L22.1353 22.969L24.5593 25.234L26.9833 27.5L23.2893 27.816ZM129.017 25.578C109.664 35.222 109.664 62.778 129.017 72.422C143.417 79.598 161.808 71.804 166.32 56.612C168.174 50.368 168.174 47.632 166.32 41.388C161.808 26.196 143.417 18.402 129.017 25.578ZM210.425 24.528C209.473 27.007 209.704 72.304 210.675 73.837C211.142 74.573 212.597 75.023 213.91 74.837L216.297 74.5V49V23.5L213.675 23.196C211.966 22.998 210.834 23.462 210.425 24.528ZM355.797 25.079C353.322 26.198 349.796 28.55 347.962 30.307C344.529 33.593 341.278 38.814 342.132 39.668C342.397 39.934 342.92 39.187 343.294 38.01C344.492 34.236 350.134 28.752 355.29 26.351C362.169 23.148 371.427 23.148 378.297 26.351C383.747 28.891 386.333 31.323 385.324 32.956C384.353 34.527 382.783 34.238 377.378 31.496C374.672 30.123 371.522 29.03 370.378 29.067C369.198 29.105 370.086 29.693 372.427 30.426C374.698 31.136 377.61 32.456 378.899 33.359C383.969 36.91 388.965 34.091 385.168 29.821C379.414 23.349 364.83 20.994 355.797 25.079ZM154.375 27.536C162.741 32.696 167.881 43.626 166.311 52.918C165.245 59.228 159.952 67.024 154.416 70.439C148.252 74.241 138.165 75.176 131.357 72.576C114.822 66.261 110.211 43.687 122.892 31.128C128.474 25.6 133.149 23.899 141.875 24.22C148.286 24.457 150.212 24.968 154.375 27.536ZM215.797 49.07V74.139L213.547 73.82L211.297 73.5L211.028 50.021C210.88 37.107 210.978 25.97 211.247 25.271C211.515 24.572 212.648 24 213.766 24C215.753 24 215.797 24.538 215.797 49.07ZM0.75534 30.55C-0.30166 31.824 -0.26466 32.367 0.96334 33.594C5.48034 38.111 69.0973 38.128 73.6123 33.614C76.0353 31.19 73.4523 28.967 68.4253 29.15L64.2973 29.3L68.7973 29.9C71.8213 30.303 73.2973 30.983 73.2973 31.972C73.2973 34.555 65.2663 35.291 36.7973 35.315C8.92034 35.339 1.29734 34.617 1.29734 31.955C1.29734 31.025 2.74134 30.28 5.29734 29.892L9.29734 29.284L5.66934 29.142C3.46634 29.056 1.53734 29.609 0.75534 30.55ZM131.392 31.266C129.244 32.495 126.094 35.229 124.392 37.343C121.524 40.904 121.297 41.758 121.297 49C121.297 56.242 121.524 57.096 124.392 60.657C128.032 65.177 134.268 69.002 137.797 68.881C140.077 68.803 140.034 68.731 137.297 68.065C127.457 65.669 121.797 58.707 121.797 49C121.797 39.293 127.457 32.331 137.297 29.935C140.034 29.269 140.077 29.197 137.797 29.119C136.422 29.072 133.54 30.038 131.392 31.266ZM144.297 29.935C154.469 32.411 160.13 39.267 160.13 49.108C160.13 58.125 154.026 65.816 145.233 67.877C143.004 68.399 142.245 68.843 143.482 68.9C146.927 69.058 151.013 67.148 154.632 63.689C159.43 59.102 161.12 55.276 161.12 49C161.12 42.724 159.43 38.898 154.632 34.311C151.012 30.85 146.925 28.941 143.482 29.102C141.83 29.18 142.029 29.383 144.297 29.935ZM227.85 30.436C226.172 32.458 227.319 37 229.507 37C231.005 37 230.992 36.863 229.379 35.684C226.575 33.633 227.734 30.5 231.297 30.5C234.902 30.5 235.994 33.614 233.156 35.799C232.096 36.615 231.911 37.047 232.726 36.805C233.511 36.572 234.634 35.62 235.22 34.69C237.597 30.924 230.733 26.962 227.85 30.436ZM358.942 30.07C352.156 32.788 345.823 41.435 345.812 48C345.801 54.657 351.225 64.018 356.831 67.018C359.476 68.434 366.856 69.905 366.23 68.892C365.927 68.401 364.788 68 363.698 68C360.613 68 354.314 64.404 351.461 61.013C349.033 58.127 346.808 52.384 346.808 49C346.808 41.541 353.371 32.811 360.668 30.565C363.214 29.781 364.397 29.136 363.297 29.133C362.197 29.13 360.237 29.551 358.942 30.07ZM395.829 30.94C394.183 34.016 396.188 37.209 399.513 36.81C402.862 36.408 404.69 33.644 403.191 31.25C401.547 28.624 397.167 28.44 395.829 30.94ZM12.5653 30.725C14.3623 30.947 17.0623 30.943 18.5653 30.715C20.0683 30.486 18.5973 30.304 15.2973 30.31C11.9973 30.315 10.7683 30.502 12.5653 30.725ZM55.5653 30.725C57.3623 30.947 60.0623 30.943 61.5653 30.715C63.0683 30.486 61.5973 30.304 58.2973 30.31C54.9973 30.315 53.7683 30.502 55.5653 30.725ZM402.297 33C402.297 34.954 401.724 35.566 399.675 35.804C398.014 35.997 396.834 35.539 396.456 34.554C395.411 31.832 396.86 29.87 399.675 30.196C401.724 30.434 402.297 31.046 402.297 33ZM30.5473 31.74C33.9853 31.936 39.6103 31.936 43.0473 31.74C46.4853 31.545 43.6723 31.385 36.7973 31.385C29.9223 31.385 27.1103 31.545 30.5473 31.74ZM6.97234 39.659L7.29734 42.5H36.6823C65.8653 42.5 66.0723 42.485 66.8653 40.343L67.6643 38.186L39.4593 38.233C23.9463 38.259 10.2173 37.951 8.95034 37.549C6.87434 36.89 6.67934 37.098 6.97234 39.659ZM30.5513 40.75C30.8533 41.665 29.2003 42 24.3803 42C19.1053 42 17.7973 41.693 17.7973 40.452C17.7973 39.19 18.9363 38.96 23.9683 39.202C27.7883 39.387 30.2953 39.976 30.5513 40.75ZM54.7973 40.5C54.7973 41.652 53.5193 42 49.2973 42C45.0753 42 43.7973 41.652 43.7973 40.5C43.7973 39.348 45.0753 39 49.2973 39C53.5193 39 54.7973 39.348 54.7973 40.5ZM176.893 41.384C176.108 42.33 175.832 47.783 176.021 58.634L176.297 74.5H179.297H182.297L182.797 62.658C183.259 51.725 183.478 50.67 185.658 48.908C186.956 47.859 187.551 47 186.979 47C185.394 47 182.86 49.879 182.297 52.32C182.021 53.519 181.683 58.775 181.546 64C181.317 72.75 181.139 73.5 179.297 73.5C177.395 73.5 177.283 72.741 177.02 58.077C176.86 49.158 177.148 42.249 177.703 41.694C178.232 41.165 179.478 41.091 180.48 41.53C181.479 41.967 184.674 42.21 187.578 42.068C198.123 41.555 200.989 46.005 200.58 62.263C200.308 73.056 200.208 73.513 198.047 73.82C195.831 74.134 195.797 73.972 195.797 63.204C195.797 53.656 195.534 51.936 193.724 49.635C192.585 48.186 190.897 47.029 189.974 47.063C188.723 47.111 188.842 47.347 190.445 47.993C193.849 49.367 194.267 50.807 194.797 63L195.297 74.5L198.012 74.813C201.606 75.227 202.071 73.199 201.637 58.993L201.297 47.842L197.466 44.334C193.865 41.036 193.286 40.845 187.799 41.162C184.588 41.346 181.624 41.161 181.213 40.749C180.048 39.585 178.156 39.863 176.893 41.384ZM247.047 40.662C246.36 40.94 245.797 41.89 245.797 42.774C245.797 44.131 246.009 44.092 247.152 42.529C248.127 41.196 249.04 40.908 250.402 41.506C251.444 41.962 254.384 42.223 256.935 42.084C262.812 41.765 267.512 44.127 269.333 48.315C270.095 50.067 270.736 50.773 270.758 49.885C270.816 47.466 267.265 43.436 263.814 42.007C262.083 41.29 258.819 40.963 256.265 41.251C253.79 41.53 251.521 41.362 251.222 40.879C250.638 39.934 249.055 39.852 247.047 40.662ZM414.893 41.384C414.108 42.33 413.832 47.783 414.021 58.634L414.297 74.5L416.684 74.837C417.997 75.023 419.452 74.573 419.919 73.837C420.385 73.102 420.773 67.695 420.782 61.823C420.797 51.487 420.881 51.079 423.432 49.073C425.155 47.717 425.543 47 424.554 47C421.306 47 420.304 50.139 419.797 61.898C419.319 72.993 419.199 73.514 417.047 73.82L414.797 74.139V58.038C414.797 44.885 415.063 41.835 416.249 41.38C417.048 41.074 418.285 41.193 418.999 41.645C419.713 42.098 422.645 42.322 425.516 42.144C429.598 41.89 431.389 42.286 433.741 43.96C437.812 46.859 438.978 51.544 438.607 63.5C438.316 72.876 438.162 73.519 436.134 73.808C434.042 74.106 433.961 73.745 433.634 62.66C433.353 53.1 432.982 50.856 431.392 49.102C430.344 47.946 428.769 47.029 427.892 47.063C426.804 47.107 426.979 47.402 428.445 47.993C431.806 49.35 432.207 50.741 432.77 63C433.283 74.186 433.362 74.509 435.684 74.837C436.997 75.023 438.452 74.573 438.919 73.837C440.336 71.601 439.953 52.309 438.418 48.636C436.075 43.028 432.246 40.79 425.645 41.17C422.519 41.35 419.624 41.161 419.213 40.749C418.048 39.585 416.156 39.863 414.893 41.384ZM487.893 41.384C487.108 42.33 486.832 47.783 487.021 58.634L487.297 74.5H490.297H493.297L493.578 62.798C493.849 51.537 493.958 51.019 496.463 49.048C499.372 46.759 498.281 46.196 495.238 48.416C493.562 49.639 493.229 51.448 492.797 61.666C492.332 72.667 492.156 73.5 490.297 73.5C488.395 73.5 488.283 72.741 488.02 58.077C487.86 49.158 488.148 42.249 488.703 41.694C489.232 41.165 490.478 41.091 491.48 41.53C492.479 41.967 495.635 42.212 498.492 42.074C502.001 41.904 504.639 42.384 506.619 43.554C509.347 45.165 509.714 45.171 511.896 43.643C514.623 41.733 520.597 41.496 524.236 43.154C528.823 45.244 530.18 48.659 530.621 59.223C531.101 70.708 530.491 74 527.885 74C525.221 74 524.797 72.154 524.797 60.573C524.797 51.638 524.543 50.08 522.83 48.53C520.362 46.296 516.133 46.237 513.958 48.406C512.667 49.694 512.186 52.67 511.797 61.781C511.318 72.998 511.201 73.514 509.047 73.82C506.831 74.134 506.797 73.972 506.797 63.204C506.797 53.656 506.534 51.936 504.724 49.635C503.585 48.186 501.897 47.029 500.974 47.063C499.723 47.111 499.842 47.347 501.445 47.993C504.849 49.367 505.267 50.807 505.797 63C506.284 74.195 506.36 74.509 508.684 74.837C509.997 75.023 511.452 74.573 511.919 73.837C512.385 73.102 512.78 67.775 512.797 62C512.814 56.225 513.158 51.005 513.562 50.4C515.173 47.988 518.348 47.092 520.86 48.34C523.181 49.494 523.321 50.095 523.797 61.026C524.331 73.273 524.828 75 527.821 75C530.807 75 531.797 71.836 531.791 62.316C531.784 51.293 530.57 46.828 526.691 43.564C523.104 40.546 516.468 40.084 511.75 42.525C509.082 43.904 508.562 43.892 506.287 42.402C504.443 41.193 502.3 40.877 498.243 41.213C495.201 41.465 492.48 41.295 492.196 40.836C491.405 39.556 489.174 39.84 487.893 41.384ZM228.238 42.292C227.966 43.003 227.867 50.54 228.02 59.042C228.297 74.484 228.3 74.5 230.684 74.837C231.997 75.023 233.452 74.573 233.919 73.837C234.882 72.318 235.119 45.002 234.19 42.582C233.462 40.684 228.94 40.464 228.238 42.292ZM285.977 42.682C282.811 44.242 277.797 49.694 277.797 51.577C277.797 52.065 278.895 50.849 280.236 48.875C283.267 44.415 288.189 42 294.248 42C299.764 42 303.605 43.794 307.178 48.041C310.128 51.547 310.638 51.213 308.144 47.407C304.335 41.594 293.062 39.19 285.977 42.682ZM396.425 42.528C395.481 44.987 395.7 72.298 396.675 73.837C397.142 74.573 398.597 75.023 399.91 74.837L402.297 74.5V58V41.5L399.675 41.196C397.966 40.998 396.834 41.462 396.425 42.528ZM454.297 42.871C448.422 46.519 444.797 52.611 444.797 58.833C444.797 63.513 448.714 69.867 453.231 72.514C458.969 75.877 467.071 75.964 471.892 72.715C478.668 68.149 476.041 64.565 467.992 67.394C465.41 68.301 464.647 68.782 466.297 68.461C467.947 68.141 470.579 67.624 472.145 67.312C474.538 66.835 474.937 67.044 474.642 68.622C474.127 71.378 468.064 73.997 462.195 73.998C449.868 74.002 442.377 61.886 447.982 51.008C451.101 44.956 455.715 42 462.044 42C471.139 42 477.448 46.982 478.526 55.017L479.052 58.94L465.687 59.22C450.849 59.531 449.492 60.249 453.996 65.402C456.155 67.873 463.557 71.039 462.257 68.936C461.939 68.421 460.785 68 459.693 68C457.354 68 452.797 63.754 452.797 61.574C452.797 60.31 454.995 60.012 466.047 59.779L479.297 59.5L479.207 55.203C479.106 50.341 476.834 46.671 471.807 43.25C467.515 40.329 458.697 40.138 454.297 42.871ZM547.797 41.722C541.602 44.049 536.797 51.16 536.797 58C536.797 63.175 539.836 69.18 543.933 72.097C547.777 74.834 556.425 75.811 560.793 74.002C563.132 73.033 564.119 73.022 565.243 73.955C566.037 74.614 567.724 75.006 568.992 74.827C571.292 74.501 571.297 74.466 571.297 58.014C571.297 42.669 571.167 41.502 569.416 41.165C568.381 40.966 566.525 41.343 565.291 42.003C563.63 42.892 562.512 42.918 560.988 42.102C558.865 40.966 550.453 40.723 547.797 41.722ZM233.297 58C233.297 73.313 233.27 73.504 231.047 73.82L228.797 74.139V58V41.861L231.047 42.18C233.27 42.496 233.297 42.687 233.297 58ZM401.797 58.07V74.139L399.547 73.82C397.347 73.507 397.291 73.177 397.018 59.046C396.865 51.096 396.963 44.009 397.237 43.296C397.51 42.583 398.648 42 399.766 42C401.723 42 401.797 42.584 401.797 58.07ZM561.865 43.535C564.533 44.915 564.892 44.915 565.422 43.535C565.746 42.691 567.088 42 568.404 42H570.797V58V74H568.404C567.088 74 565.746 73.309 565.422 72.465C564.892 71.085 564.533 71.085 561.865 72.465C551.367 77.893 537.797 69.738 537.797 58C537.797 46.262 551.367 38.107 561.865 43.535ZM3.22934 46.316C2.94634 47.054 2.84534 51.673 3.00634 56.579L3.29734 65.5L14.2973 66C22.4143 66.369 24.4133 66.697 21.9223 67.25C20.0663 67.662 16.5423 68 14.0933 68C9.77034 68 9.65434 68.081 10.1753 70.75C10.4713 72.263 11.0073 76.513 11.3663 80.195C11.9703 86.395 12.2133 86.932 14.6583 87.467C20.8433 88.821 37.9353 89.616 45.7973 88.916C50.4723 88.5 55.7713 88.123 57.5723 88.08C61.5733 87.982 62.2583 86.496 63.2513 75.75L63.9683 68L58.1323 67.986C46.3563 67.959 47.2103 66.504 59.2973 66L71.2973 65.5V55.5V45.5L37.5213 45.237C9.99834 45.022 3.64934 45.222 3.22934 46.316ZM340.069 49C340.069 51.475 340.264 52.487 340.503 51.25C340.741 50.013 340.741 47.987 340.503 46.75C340.264 45.513 340.069 46.525 340.069 49ZM70.7973 55.5V65H59.2753H47.7523L43.4133 61C41.0263 58.8 38.2743 57 37.2973 57C36.3203 57 33.5683 58.8 31.1813 61L26.8423 65H15.3193H3.79734V55.5V46H37.2973H70.7973V55.5ZM256.112 47.079C252.759 48.319 252.327 49.814 251.797 61.989C251.352 72.221 251.091 73.518 249.417 73.838C248.383 74.035 247.111 73.59 246.591 72.848C245.83 71.764 245.725 71.794 246.054 73C246.588 74.959 249.504 75.488 251.345 73.96C252.449 73.044 252.797 70.191 252.797 62.069C252.797 50.241 253.723 47.75 258.122 47.75C263.122 47.75 263.778 49.27 264.009 61.372L264.222 72.5L264.545 61.618C264.808 52.727 264.575 50.412 263.267 48.967C261.24 46.727 258.803 46.084 256.112 47.079ZM290.297 47.427C286.602 49.028 283.374 52.507 284.258 53.937C285.065 55.243 302.442 55.383 303.241 54.09C304.687 51.752 300.81 47.914 295.797 46.722C294.422 46.394 291.947 46.712 290.297 47.427ZM459.216 47.075C455.419 48.178 452.354 51.402 453.144 53.463C453.614 54.688 455.557 55 462.707 55C468.447 55 471.938 54.581 472.398 53.837C473.297 52.382 467.419 46.976 465.031 47.063C463.829 47.107 464.057 47.43 465.776 48.116C469.038 49.418 471.887 52.046 471.214 53.134C470.531 54.24 453.797 54.279 453.797 53.174C453.797 51.76 458.343 48 460.052 48C460.947 48 461.957 47.55 462.297 47C462.637 46.45 462.776 46.041 462.606 46.09C462.436 46.14 460.91 46.583 459.216 47.075ZM7.54734 48.08C6.58434 48.641 5.79734 49.559 5.79734 50.121C5.79734 50.683 6.50434 50.436 7.36834 49.571C8.53034 48.41 10.9873 48 16.7973 48C26.2103 48 27.7973 49.084 27.7973 55.515C27.7973 61.422 25.4783 63 16.7973 63C8.42134 63 6.04634 61.468 5.52834 55.733L5.14634 51.5L4.97234 55.75C4.69734 62.436 6.93934 64 16.7973 64C26.6603 64 28.7973 62.486 28.7973 55.5C28.7973 48.551 26.6363 46.993 17.0473 47.03C12.7843 47.047 8.51034 47.519 7.54734 48.08ZM48.2973 48.482C46.3293 50.085 46.3323 50.094 48.4813 49.055C51.2253 47.73 61.8233 47.679 65.2323 48.975C67.5553 49.859 67.7973 50.468 67.7973 55.44C67.7973 62.176 66.6523 63 57.2973 63C48.1073 63 46.8393 62.135 46.6173 55.715L46.4373 50.5L46.0583 55.356C45.4803 62.759 47.1063 64 57.3813 64C67.5333 64 68.8043 63.073 68.7823 55.679C68.7593 48.031 68.1843 47.551 58.5843 47.177C52.0653 46.923 49.8703 47.202 48.2973 48.482ZM299.734 49.893C304.525 53.291 303.515 54 293.88 54C288.884 54 284.797 53.62 284.797 53.155C284.797 51.907 287.982 49.246 290.818 48.125C293.725 46.976 296.358 47.499 299.734 49.893ZM546.563 49.918C543.673 52.5 543.297 53.431 543.297 58C543.297 62.569 543.673 63.5 546.563 66.082C548.359 67.687 550.609 68.982 551.563 68.961C552.56 68.938 551.943 68.333 550.112 67.536C546.78 66.087 543.797 61.582 543.797 58C543.797 54.418 546.78 49.913 550.112 48.464C551.943 47.667 552.56 47.062 551.563 47.039C550.609 47.018 548.359 48.313 546.563 49.918ZM558.665 48.789C560.5 49.774 562.614 51.686 563.364 53.039C564.113 54.393 564.742 54.903 564.762 54.173C564.813 52.233 559.253 47 557.14 47C555.959 47 556.491 47.623 558.665 48.789ZM8.24834 52.339C7.91434 53.67 7.78834 56.05 7.96934 57.629L8.29734 60.5H16.7973H25.2973V55.5V50.5L17.0763 50.21C9.10834 49.929 8.83634 49.994 8.24834 52.339ZM49.2153 51.353C48.9123 52.143 48.8063 54.524 48.9803 56.645L49.2973 60.5L55.2553 60.806C58.5323 60.974 62.2693 60.847 63.5593 60.524C65.6643 59.995 65.8733 59.452 65.6003 55.218L65.2973 50.5L57.5323 50.208C51.5053 49.981 49.6433 50.237 49.2153 51.353ZM18.9363 53.033C16.4263 55.125 13.2943 55.613 12.3353 54.061C11.5023 52.714 14.7903 51.06 18.2973 51.064L21.2973 51.067L18.9363 53.033ZM270.776 62.5L270.297 73.5L267.622 73.466C266.15 73.448 265.164 73.785 265.431 74.216C266.217 75.488 269.459 75.112 270.711 73.604C271.472 72.687 271.764 68.658 271.562 61.854L271.255 51.5L270.776 62.5ZM310.091 55L310.297 58.5L297.315 58.782C290.176 58.936 283.95 59.447 283.48 59.917C282.045 61.352 285.516 66.641 288.782 67.994C290.475 68.695 292.147 68.984 292.496 68.635C292.845 68.286 292.346 68 291.387 68C289.484 68 283.797 62.812 283.797 61.077C283.797 60.361 288.302 60 297.23 60C309.434 60 310.716 59.83 311.251 58.145C311.575 57.125 311.4 55.212 310.862 53.895C309.977 51.725 309.905 51.829 310.091 55ZM276.955 55C276.955 56.375 277.182 56.938 277.459 56.25C277.737 55.563 277.737 54.438 277.459 53.75C277.182 53.063 276.955 53.625 276.955 55ZM340.876 55.583C340.924 56.748 341.161 56.985 341.48 56.188C341.769 55.466 341.733 54.603 341.401 54.271C341.069 53.939 340.833 54.529 340.876 55.583ZM10.7973 57.2C10.7973 58.815 10.5013 59.104 9.68434 58.287C9.07234 57.675 8.87434 56.685 9.24334 56.087C10.2783 54.413 10.7973 54.785 10.7973 57.2ZM564.955 58C564.955 59.375 565.182 59.938 565.459 59.25C565.737 58.563 565.737 57.438 565.459 56.75C565.182 56.063 564.955 56.625 564.955 58ZM341.797 58.664C341.797 61.928 349.477 69.865 355.297 72.617C364.682 77.053 379.195 74.897 385.168 68.179C389.012 63.857 383.953 61.101 378.8 64.71C377.457 65.651 374.32 66.971 371.828 67.643C368.615 68.509 368.048 68.885 369.878 68.933C371.297 68.97 374.672 67.877 377.378 66.504C382.799 63.754 384.353 63.472 385.336 65.063C386.363 66.725 383.132 69.61 377.556 72.008C373.484 73.76 371.013 74.129 365.28 73.839C356.342 73.388 349.885 69.803 345.047 62.608C343.259 59.949 341.797 58.175 341.797 58.664ZM276.841 61.602C276.787 64.205 280.416 69.664 283.933 72.268C289.206 76.173 300.584 75.78 305.166 71.534C310.12 66.943 305.76 64.275 298.662 67.555C296.505 68.551 296.195 68.877 297.797 68.461C306.223 66.276 308.425 67.122 304.328 70.97C301.68 73.459 295.054 74.646 289.563 73.616C284.946 72.75 279.981 68.294 278.293 63.5C277.418 61.015 276.868 60.296 276.841 61.602ZM563.325 62.911C562.668 64.983 559.377 67.478 556.255 68.271C554.57 68.699 554.622 68.784 556.624 68.884C558.969 69.001 564.797 64.147 564.797 62.077C564.797 60.366 563.987 60.825 563.325 62.911ZM30.2763 69.75C29.2173 73.615 29.1873 81.957 30.2203 85.401L31.0903 88.302L26.6933 87.6C24.2753 87.214 22.0023 86.583 21.6423 86.199C21.2813 85.814 20.8283 81.787 20.6343 77.25C20.2843 69.032 20.2923 69 22.7903 68.93C24.1693 68.891 26.1973 68.473 27.2973 68C30.5883 66.586 31.0673 66.867 30.2763 69.75ZM49.5473 68.716C52.7733 69.258 52.7973 69.304 52.7973 75.006C52.7973 85.168 52.1363 86.767 47.6183 87.53C43.1553 88.284 41.9643 87.708 43.6893 85.63C45.8043 83.082 46.2653 74.363 44.4333 71.567C42.2803 68.282 42.3283 66.6 44.5473 67.478C45.5103 67.859 47.7603 68.416 49.5473 68.716ZM42.2973 74C42.6813 74.621 40.7883 75 37.2973 75C33.8063 75 31.9133 74.621 32.2973 74C32.6373 73.45 34.8873 73 37.2973 73C39.7073 73 41.9573 73.45 42.2973 74Z" fill="#1DB954"/>
</svg>
